<?xml version="1.0" encoding="utf-8"?>
<!-- Generator: Adobe Illustrator 26.0.1, SVG Export Plug-In . SVG Version: 6.00 Build 0)  -->
<svg version="1.1" id="Layer_1" xmlns="http://www.w3.org/2000/svg" xmlns:xlink="http://www.w3.org/1999/xlink" x="0px" y="0px"
	 viewBox="0 0 16 16" style="enable-background:new 0 0 16 16;" xml:space="preserve">
<style type="text/css">
	.st0{fill:#004E98;}
</style>
<g id="Icon_00000039856601821785705630000016229827749961137567_">
	<g>
		<path class="st0" d="M8.17,7.94l2.14,0.36c0,0-0.66,1.48-3.91,4.15c1.95,1.48,2.7,1.96,3.52,2.28C8,15.85,8,15.85,8,15.85
			s-5.09-2.26-7.35-9.32c1.64-0.95,1.8-1.04,1.8-1.04s0.39,2.3,2.49,5.29C5.5,10.45,7.01,9.58,8.17,7.94z"/>
		<path class="st0" d="M8.89,6.08L8.13,4.04c0,0,1.61-0.16,5.55,1.31c0.31-2.43,0.34-3.31,0.22-4.19c1.92,1.11,1.92,1.11,1.92,1.11
			s0.59,5.53-4.39,11.03c-1.64-0.95-1.8-1.04-1.8-1.04s1.8-1.49,3.33-4.8C12.4,7.14,10.89,6.27,8.89,6.08z"/>
		<path class="st0" d="M6.91,6.39L5.53,8.07c0,0-0.95-1.31-1.64-5.46C1.64,3.55,0.85,3.96,0.16,4.51c0-2.22,0-2.22,0-2.22
			s4.5-3.28,11.74-1.71c0,1.89,0,2.07,0,2.07S9.72,1.84,6.08,2.17C6.08,2.82,6.08,4.57,6.91,6.39z"/>
	</g>
</g>
</svg>
