<?xml version="1.0" encoding="utf-8"?>
<!-- Generator: Adobe Illustrator 26.0.1, SVG Export Plug-In . SVG Version: 6.00 Build 0)  -->
<svg version="1.1" id="Layer_1" xmlns="http://www.w3.org/2000/svg" xmlns:xlink="http://www.w3.org/1999/xlink" x="0px" y="0px"
	 viewBox="0 0 254.24 75.9" style="enable-background:new 0 0 254.24 75.9;" xml:space="preserve">
<style type="text/css">
	.st0{fill:#FFFFFF;}
</style>
<g id="TTT_Logo_00000119798348087644784840000014233921014651690922_">
	<g id="Logotype_00000156552350647452239510000013853025038639458433_">
		<path class="st0" d="M92.55,23.85h-3.71v-2.42c3.56,0,6.56,0,10.13,0v2.42h-3.71v9.78h-2.7V23.85z"/>
		<path class="st0" d="M108.8,33.65v-4.83h-5.46v4.83h-2.72V21.44h2.72v4.88h5.46v-4.88h2.69v12.21H108.8z"/>
		<path class="st0" d="M123.5,33.64h-9.3c0-4.06,0-8.14,0-12.21h9.05v2.49h-6.38v2.35h6.02v2.39h-6.02v2.46h6.63V33.64z"/>
		<path class="st0" d="M131.95,23.85h-3.71v-2.42c3.56,0,6.56,0,10.13,0v2.42h-3.71v9.78h-2.7V23.85z"/>
		<path class="st0" d="M150.86,33.64h-3.02l-3.12-4.01h-1.97v4.01h-2.72V21.43c1.99,0,3.82,0,5.79,0c2.95,0,4.52,1.97,4.52,4.12
			c-0.02,1.59-0.49,3-2.83,3.84l3.35,4.05V33.64z M142.75,23.76v3.56h3.1c1.26,0,1.8-0.94,1.8-1.71c-0.02-0.84-0.56-1.85-1.83-1.85
			H142.75z"/>
		<path class="st0" d="M161.96,33.64h-9.3c0-4.06,0-8.14,0-12.21h9.05v2.49h-6.38v2.35h6.02v2.39h-6.02v2.46h6.63V33.64z"/>
		<path class="st0" d="M172.75,31.54h-6.26l-0.89,2.09h-2.93l5.48-12.21h2.96l5.48,12.21h-2.95L172.75,31.54z M169.63,24.18
			l-2.11,4.95h4.2L169.63,24.18z"/>
		<path class="st0" d="M184.96,24.37c-0.68-0.72-1.87-1.03-2.83-1.03c-1.2,0-2.18,0.51-2.18,1.34c0,1.12,1.06,1.33,2.63,1.46
			c2.41,0.21,4.69,1.13,4.69,3.96c0,2.72-2.51,3.91-5.14,3.92c-2.11,0.02-4.31-0.8-5.34-2.51l1.62-1.69
			c0.94,1.2,2.49,1.73,3.73,1.73c1.45,0,2.44-0.58,2.44-1.45c0.02-1.03-0.8-1.5-2.46-1.64c-2.58-0.24-4.88-0.89-4.85-3.77
			c0.02-2.42,2.32-3.71,4.83-3.71c1.88,0,3.3,0.42,4.55,1.88L184.96,24.37z"/>
		<path class="st0" d="M200.09,21.44v6.82c0,3.63-2.02,5.56-5.23,5.67c-3.19,0.1-5.9-1.73-5.9-5.67v-6.82h2.7v6.82
			c0,2.18,1.22,3.31,3.21,3.23c1.85-0.12,2.51-1.39,2.51-3.23v-6.82H200.09z"/>
		<path class="st0" d="M213.46,33.64h-3.02l-3.12-4.01h-1.97v4.01h-2.72V21.43c1.99,0,3.82,0,5.79,0c2.95,0,4.52,1.97,4.52,4.12
			c-0.02,1.59-0.49,3-2.83,3.84l3.35,4.05V33.64z M205.35,23.76v3.56h3.1c1.26,0,1.8-0.94,1.8-1.71c-0.02-0.84-0.56-1.85-1.83-1.85
			H205.35z"/>
		<path class="st0" d="M224.57,33.64h-9.3c0-4.06,0-8.14,0-12.21h9.05v2.49h-6.38v2.35h6.02v2.39h-6.02v2.46h6.63V33.64z"/>
		<path class="st0" d="M236.73,33.93c-3.91,0-6.59-2.42-6.59-6.4s2.69-6.4,6.59-6.4c3.91,0,6.59,2.42,6.59,6.4
			S240.64,33.93,236.73,33.93z M236.73,23.57c-2.32,0-3.92,1.74-3.92,3.96c0,2.29,1.6,3.94,3.92,3.94c2.37,0,3.92-1.67,3.92-3.94
			C240.66,25.3,239.11,23.57,236.73,23.57z"/>
		<path class="st0" d="M245.34,33.64V21.44h8.89v2.49h-6.17v2.9h5.79v2.42h-5.79v4.38H245.34z"/>
		<path class="st0" d="M92.55,44.77h-3.71v-2.42c3.56,0,6.56,0,10.13,0v2.42h-3.71v9.78h-2.7V44.77z"/>
		<path class="st0" d="M109.92,54.56h-9.3c0-4.06,0-8.14,0-12.21h9.05v2.49h-6.38v2.35h6.02v2.39h-6.02v2.46h6.63V54.56z"/>
		<path class="st0" d="M122.46,53.07c-1.26,1.24-2.88,1.8-4.69,1.8c-4.66,0-6.51-3-6.52-6.33c-0.02-3.16,2.04-6.47,6.52-6.47
			c1.67,0,3.23,0.64,4.48,1.88l-1.71,1.69c-0.73-0.71-1.8-1.01-2.77-1.01c-2.77,0-3.85,2.15-3.84,3.92c0.02,1.78,0.98,3.8,3.84,3.8
			c0.98,0,2.27-0.44,3-1.17L122.46,53.07z"/>
		<path class="st0" d="M132.25,54.57v-4.83h-5.46v4.83h-2.72V42.37h2.72v4.88h5.46v-4.88h2.69v12.21H132.25z"/>
		<path class="st0" d="M146.15,50.28l-0.17-3.84v-4.1h2.74v12.21h-2.34l-6.07-7.81l0.1,4.01v3.8h-2.76V42.35h2.34L146.15,50.28z"/>
		<path class="st0" d="M157.32,54.85c-3.91,0-6.59-2.42-6.59-6.4s2.69-6.4,6.59-6.4c3.91,0,6.59,2.42,6.59,6.4
			S161.23,54.85,157.32,54.85z M157.32,44.49c-2.32,0-3.92,1.74-3.92,3.96c0,2.29,1.6,3.94,3.92,3.94c2.37,0,3.92-1.67,3.92-3.94
			C161.25,46.22,159.69,44.49,157.32,44.49z"/>
		<path class="st0" d="M168.65,42.35v9.71h6.1v2.49h-8.83V42.35H168.65z"/>
		<path class="st0" d="M182.1,54.85c-3.91,0-6.59-2.42-6.59-6.4s2.69-6.4,6.59-6.4c3.91,0,6.59,2.42,6.59,6.4S186,54.85,182.1,54.85
			z M182.1,44.49c-2.32,0-3.92,1.74-3.92,3.96c0,2.29,1.6,3.94,3.92,3.94c2.37,0,3.92-1.67,3.92-3.94
			C186.02,46.22,184.47,44.49,182.1,44.49z"/>
		<path class="st0" d="M199.37,45.56c-0.75-0.72-1.88-1.08-2.86-1.08c-2.32,0-3.84,1.33-3.84,3.99c0,1.74,0.96,3.92,3.84,3.92
			c0.85,0,1.66-0.14,2.6-0.85v-1.95h-2.91v-2.27h5.27v5.32c-1.05,1.5-2.72,2.27-4.97,2.27c-4.71,0-6.49-3.26-6.49-6.44
			c0-3.44,2.02-6.49,6.5-6.49c1.66,0,3.16,0.45,4.55,1.88L199.37,45.56z"/>
		<path class="st0" d="M207.93,47.2l3.09-4.85h3.12v0.14l-4.88,7.22v4.85h-2.72v-4.85l-4.67-7.22v-0.14H205L207.93,47.2z"/>
	</g>
	<g id="Icon_00000091011050380958230440000016014717050138326150_">
		<g>
			<path class="st0" d="M38.75,37.68l10.36,1.74c0,0-3.2,7.13-18.91,20.07c9.42,7.17,13.05,9.46,17.01,11.03
				c-9.3,5.37-9.3,5.37-9.3,5.37S13.3,64.98,2.34,30.85c7.93-4.58,8.69-5.02,8.69-5.02s1.88,11.11,12.06,25.57
				C25.83,49.81,33.14,45.59,38.75,37.68z"/>
			<path class="st0" d="M42.22,28.66l-3.67-9.85c0,0,7.78-0.8,26.84,6.34c1.49-11.74,1.67-16.03,1.05-20.25
				c9.3,5.37,9.3,5.37,9.3,5.37s2.85,26.77-21.23,53.33c-7.93-4.58-8.69-5.02-8.69-5.02s8.68-7.19,16.12-23.23
				C59.19,33.78,51.88,29.56,42.22,28.66z"/>
			<path class="st0" d="M32.67,30.17l-6.69,8.1c0,0-4.58-6.34-7.92-26.41C7.14,16.43,3.35,18.43,0,21.07c0-10.74,0-10.74,0-10.74
				S21.76-5.52,56.8,2.05c0,9.16,0,10.03,0,10.03S46.23,8.16,28.62,9.74C28.62,12.91,28.62,21.35,32.67,30.17z"/>
		</g>
	</g>
</g>
</svg>
